<?xml version="1.0" standalone="no"?>
<!DOCTYPE svg PUBLIC "-//W3C//DTD SVG 20010904//EN"
 "http://www.w3.org/TR/2001/REC-SVG-20010904/DTD/svg10.dtd">
<svg version="1.0" xmlns="http://www.w3.org/2000/svg"
 width="640.000000pt" height="480.000000pt" viewBox="0 0 640.000000 480.000000"
 preserveAspectRatio="xMidYMid meet">

<g transform="translate(0.000000,480.000000) scale(0.100000,-0.100000)"
fill="#000000" stroke="none">
<path d="M2290 4766 c-271 -103 -505 -229 -654 -353 -52 -43 -104 -163 -151
-349 -41 -162 -62 -290 -111 -674 -22 -172 -24 -458 -4 -683 8 -96 9 -152 3
-158 -6 -6 -14 50 -21 158 -7 92 -17 216 -24 276 l-11 107 -32 0 c-22 0 -40
-9 -59 -29 l-28 -30 11 -258 c6 -142 16 -382 22 -533 5 -151 12 -290 15 -307
6 -42 45 -63 112 -63 l50 0 16 -63 c9 -34 23 -91 31 -127 29 -132 50 -216 140
-565 83 -317 139 -489 192 -590 54 -101 141 -227 248 -357 155 -190 125 -169
240 -166 l100 3 -52 53 c-29 29 -56 65 -60 80 -13 45 -8 173 10 242 24 96 31
239 18 368 -12 116 -29 174 -65 227 -12 17 -27 39 -33 50 -7 11 -27 44 -45 73
-18 30 -38 61 -43 70 -6 10 -38 62 -73 117 -35 55 -68 109 -75 120 -7 10 -33
52 -59 93 -27 40 -48 75 -48 77 0 2 -19 32 -43 67 -94 137 -128 226 -157 400
-9 62 -9 65 55 253 35 104 71 208 81 230 18 44 19 5 -12 972 l-16 491 54 69
c179 222 301 299 673 422 84 27 122 36 126 27 4 -6 16 -83 28 -171 12 -88 30
-218 41 -290 10 -71 31 -215 45 -320 22 -163 49 -331 74 -465 6 -31 13 -38 66
-60 58 -24 67 -25 339 -28 259 -3 282 -2 341 18 34 11 69 26 78 33 17 13 46
164 78 407 10 80 23 168 28 195 6 28 13 75 16 105 3 30 17 132 31 225 13 94
30 213 37 265 12 93 13 95 37 92 34 -5 229 -69 315 -103 189 -76 213 -94 384
-297 l104 -123 -7 -302 c-4 -166 -13 -479 -21 -696 l-14 -394 56 -166 c117
-344 106 -294 87 -386 -27 -136 -63 -248 -96 -300 -37 -59 -244 -426 -265
-470 -7 -16 -26 -52 -41 -80 -128 -232 -152 -288 -167 -387 -21 -136 -19 -265
6 -405 38 -212 29 -295 -37 -338 -17 -11 -39 -30 -48 -43 l-18 -23 88 3 88 3
59 70 c177 210 327 445 377 591 26 74 86 275 112 374 10 41 31 118 44 170 31
117 69 269 94 376 10 44 25 105 33 135 9 30 18 70 21 90 6 35 8 37 57 41 93 9
92 4 106 335 6 159 16 396 22 528 6 132 11 255 11 273 0 45 -46 92 -89 92 -38
0 -36 -7 -56 230 -29 352 -82 676 -140 863 -43 137 -82 205 -148 258 -153 123
-381 243 -651 344 l-68 25 -837 -1 -836 -1 -85 -32z"/>
</g>
</svg>
